<?xml version="1.0" encoding="utf-8"?>
<!-- Uploaded to: SVG Repo, www.svgrepo.com, Generator: SVG Repo Mixer Tools -->
<svg width="800px" height="800px" viewBox="0 0 32 32" fill="none" xmlns="http://www.w3.org/2000/svg">
<g clip-path="url(#clip0_901_3078)">
<path d="M25 23C25 21.9 24.1 21 23 21C21.9 21 21 21.9 21 23C21 24.1 21.9 25 23 25C24.1 25 25 24.1 25 23ZM31 2V30C31 30.55 30.55 31 30 31H2C1.45 31 1 30.55 1 30V2C1 1.45 1.45 1 2 1H30C30.55 1 31 1.45 31 2ZM18 16C18 14.9 17.1 14 16 14C14.9 14 14 14.9 14 16C14 17.1 14.9 18 16 18C17.1 18 18 17.1 18 16ZM11 9C11 7.9 10.1 7 9 7C7.9 7 7 7.9 7 9C7 10.1 7.9 11 9 11C10.1 11 11 10.1 11 9Z" fill="#FFE6EA"/>
<path d="M23 21C24.1 21 25 21.9 25 23C25 24.1 24.1 25 23 25C21.9 25 21 24.1 21 23C21 21.9 21.9 21 23 21Z" fill="#FFC44D"/>
<path d="M16 14C17.1 14 18 14.9 18 16C18 17.1 17.1 18 16 18C14.9 18 14 17.1 14 16C14 14.9 14.9 14 16 14Z" fill="#FFC44D"/>
<path d="M9 7C10.1 7 11 7.9 11 9C11 10.1 10.1 11 9 11C7.9 11 7 10.1 7 9C7 7.9 7.9 7 9 7Z" fill="#668077"/>
<path d="M11 9C11 7.896 10.104 7 9 7C7.896 7 7 7.896 7 9C7 10.104 7.896 11 9 11C10.104 11 11 10.104 11 9ZM11 9H25M18 16C18 14.896 17.104 14 16 14C14.896 14 14 14.896 14 16C14 17.104 14.896 18 16 18C17.104 18 18 17.104 18 16ZM18 16H25M10 16H7M17 23H7M31 30C31 30.553 30.553 31 30 31H2C1.447 31 1 30.553 1 30V2C1 1.447 1.447 1 2 1H30C30.553 1 31 1.447 31 2V30ZM25 23C25 21.896 24.104 21 23 21C21.896 21 21 21.896 21 23C21 24.104 21.896 25 23 25C24.104 25 25 24.104 25 23Z" stroke="#000000" stroke-width="2" stroke-linecap="round" stroke-linejoin="round"/>
</g>
<defs>
<clipPath id="clip0_901_3078">
<rect width="32" height="32" fill="white"/>
</clipPath>
</defs>
</svg>